<svg width="16" height="16" viewBox="0 0 16 16" fill="none" xmlns="http://www.w3.org/2000/svg">
<path d="M12.8594 2.39065C12.666 2.40823 12.4785 2.46487 12.2969 2.56252L9.9375 3.81252L6.75 3.03127L6.5625 2.9844L6.375 3.07815L5.29688 3.70315L4.65625 4.07815L5.25 4.53127L6.60938 5.56252L4.90625 6.46877L3.07812 5.64065L2.85938 5.5469L2.64062 5.65627L1.76562 6.12502L1.1875 6.43752L1.625 6.90627L4.32812 9.81252L4.57812 10.1094L4.92188 9.9219L7.5 8.5469L6.98438 11.3906L6.8125 12.2969L7.67188 11.9375L8.95312 11.3906L9.14062 11.3125L9.21875 11.125L11.0781 6.6094L13.7031 5.20315C14.4258 4.81448 14.7168 3.89455 14.3281 3.1719C14.1348 2.81057 13.8047 2.56448 13.4375 2.45315C13.2539 2.39846 13.0527 2.37307 12.8594 2.39065ZM12.9531 3.39065C13.0156 3.38674 13.0801 3.3887 13.1406 3.40627C13.2617 3.44338 13.3711 3.5176 13.4375 3.64065C13.5703 3.8887 13.4824 4.17971 13.2344 4.31252L10.4375 5.82815L10.2812 5.90627L10.2188 6.07815L8.35938 10.5469L8.14062 10.6406L8.67188 7.68752L8.85938 6.6719L7.95312 7.15627L4.79688 8.8594L2.8125 6.70315L2.89062 6.65627L4.71875 7.46877L4.95312 7.57815L5.15625 7.45315L12.7656 3.43752C12.8281 3.40432 12.8906 3.39455 12.9531 3.39065ZM6.6875 4.0469L8.60938 4.51565L7.57812 5.0469L6.45312 4.18752L6.6875 4.0469ZM1.5 13V14H14.5V13H1.5Z" fill="black"/>
</svg>
