<svg width="119" height="44" viewBox="0 0 119 44" fill="none" xmlns="http://www.w3.org/2000/svg">
<g clip-path="url(#clip0_2132_2053)">
<path fill-rule="evenodd" clip-rule="evenodd" d="M60.0952 0.00211466C63.0493 0.0399891 65.7883 0.960176 68.0574 2.50799C70.474 0.923815 73.3702 0 76.4848 0H98.3376V0.0264333C109.899 0.590554 119.098 10.0579 119.098 21.6541C119.098 33.6134 109.314 43.3083 97.2449 43.3083C85.176 43.3083 75.3922 33.6134 75.3922 21.6541C75.3922 18.5744 76.0418 15.645 77.2114 12.9925H76.4848C75.2779 12.9925 74.2995 13.9619 74.2995 15.1579H74.2963C74.2658 17.4921 73.6696 19.6903 72.6371 21.6256C74.3654 23.8926 75.3922 26.7143 75.3922 29.7744C75.3922 37.249 69.2773 43.3083 61.7342 43.3083H48.0762V30.3158H63.9194C64.2211 30.3158 64.4658 30.0734 64.4658 29.7744C64.4658 29.4755 64.2211 29.2331 63.9194 29.2331H60.0952V29.2299C60.0319 29.2307 59.9687 29.2331 59.9053 29.2331H59.5489C51.4024 29.2331 44.7982 22.689 44.7982 14.6165C44.7982 14.0676 44.8295 13.5257 44.8889 12.9925H18.5749V0H60.0952V0.00211466ZM97.2449 2.16541C86.3829 2.16541 77.5774 10.8908 77.5774 21.6541C77.5774 32.4174 86.3829 41.1429 97.2449 41.1429C108.107 41.1429 116.912 32.4174 116.912 21.6541C116.912 10.8908 108.107 2.16541 97.2449 2.16541ZM59.5489 11.9098C58.0403 11.9098 56.8173 13.1216 56.8173 14.6165C56.8173 16.1114 58.0403 17.3233 59.5489 17.3233C60.8704 17.3233 61.973 16.3934 62.2261 15.1579C62.2619 14.983 62.2805 14.8019 62.2805 14.6165C62.2805 14.3235 62.2323 14.0419 62.145 13.7781C62.1416 13.7678 62.1378 13.7576 62.1343 13.7475C62.017 13.4073 61.8346 13.0971 61.5998 12.8328C61.5939 12.8263 61.5874 12.8203 61.5816 12.8138C61.5239 12.7502 61.4635 12.6889 61.4001 12.6309C60.9133 12.1851 60.264 11.9098 59.5489 11.9098ZM113.635 21.6541C113.635 23.4481 112.167 24.9023 110.357 24.9023C108.546 24.9023 107.079 23.4481 107.079 21.6541C107.079 19.8602 108.546 18.406 110.357 18.406C112.167 18.406 113.635 19.8602 113.635 21.6541ZM39.335 24.3609C39.335 25.8558 38.112 27.0677 36.6034 27.0677C35.0948 27.0677 33.8718 25.8558 33.8718 24.3609C33.8718 22.866 35.0948 21.6541 36.6034 21.6541C38.112 21.6541 39.335 22.866 39.335 24.3609ZM17.4822 14.0752H32.2329C40.3794 14.0752 46.9835 20.6193 46.9835 28.6917C46.9835 36.7642 40.3794 43.3083 32.2329 43.3083H17.4822C7.82706 43.3083 0 35.5524 0 25.985V0H17.4822V14.0752ZM32.2329 16.2406C25.2932 16.2406 19.6675 21.8151 19.6675 28.6917C19.6675 35.5683 25.2932 41.1429 32.2329 41.1429C39.1726 41.1429 44.7982 35.5683 44.7982 28.6917C44.7982 21.8151 39.1726 16.2406 32.2329 16.2406Z" fill="white"/>
</g>
<defs>
<clipPath id="clip0_2132_2053">
<rect width="118.556" height="43.5069" fill="white"/>
</clipPath>
</defs>
</svg>
